<?xml version="1.0" encoding="utf-8"?>
<!-- Generator: Adobe Illustrator 24.0.2, SVG Export Plug-In . SVG Version: 6.00 Build 0)  -->
<svg version="1.1" id="Layer_1" xmlns="http://www.w3.org/2000/svg" xmlns:xlink="http://www.w3.org/1999/xlink" x="0px" y="0px"
	 viewBox="0 0 72 72" style="enable-background:new 0 0 72 72;" xml:space="preserve">
<style type="text/css">
	.st0{fill:none;stroke:#34363E;stroke-width:2.5008;stroke-linecap:round;stroke-linejoin:round;stroke-miterlimit:10;}
</style>
<g>
	<path class="st0" d="M26.15,13.01c-3.36,1.44-6.32,3.61-8.73,6.29"/>
	<path class="st0" d="M54.58,19.3c-2.41-2.68-5.37-4.85-8.73-6.29"/>
	<path class="st0" d="M49.63,56.95c2.45-1.6,4.59-3.62,6.35-5.95"/>
	<path class="st0" d="M16.03,51.01c1.76,2.33,3.9,4.36,6.35,5.95"/>
	<path class="st0" d="M41,10.99c0,3.75-2.24,6.25-5,6.25c-2.76,0-5-2.5-5-6.25c0-2.76,2.24-5,5-5C38.76,5.99,41,8.23,41,10.99z"/>
	<path class="st0" d="M46,28.5v-4.74c0-0.98-0.57-1.87-1.46-2.28c-1.63-0.74-4.57-1.73-8.49-1.73c-3.93,0-6.92,1.01-8.58,1.74
		c-0.9,0.4-1.48,1.3-1.48,2.28v4.73H46z"/>
	<path class="st0" d="M41,48.5c0,3.75-2.24,6.25-5,6.25c-2.76,0-5-2.5-5-6.25c0-2.76,2.24-5,5-5C38.76,43.5,41,45.74,41,48.5z"/>
	<path class="st0" d="M46,66.01v-4.74c0-0.98-0.57-1.87-1.46-2.28c-1.63-0.74-4.57-1.73-8.49-1.73c-3.93,0-6.92,1.01-8.58,1.74
		c-0.9,0.4-1.48,1.3-1.48,2.28v4.73H46z"/>
	<path class="st0" d="M18.49,28.5c0,3.75-2.24,6.25-5,6.25c-2.76,0-5-2.5-5-6.25c0-2.76,2.24-5,5-5
		C16.25,23.5,18.49,25.74,18.49,28.5z"/>
	<path class="st0" d="M23.5,46v-4.74c0-0.98-0.57-1.87-1.46-2.28c-1.63-0.74-4.57-1.73-8.49-1.73c-3.93,0-6.92,1.01-8.58,1.74
		c-0.9,0.4-1.48,1.3-1.48,2.28V46H23.5z"/>
	<path class="st0" d="M63.51,28.5c0,3.75-2.24,6.25-5,6.25c-2.76,0-5-2.5-5-6.25c0-2.76,2.24-5,5-5
		C61.27,23.5,63.51,25.74,63.51,28.5z"/>
	<path class="st0" d="M68.51,46v-4.74c0-0.98-0.57-1.87-1.46-2.28c-1.63-0.74-4.57-1.73-8.49-1.73c-3.93,0-6.92,1.01-8.58,1.74
		c-0.9,0.4-1.48,1.3-1.48,2.28V46H68.51z"/>
</g>
</svg>
